<svg width="85" height="85" viewBox="0 0 85 85" fill="none" xmlns="http://www.w3.org/2000/svg">
<path d="M40.1501 1.46816L22.1618 5.34479C21.517 5.4823 20.9388 5.83667 20.5236 6.34881C20.1084 6.86096 19.8813 7.49995 19.8801 8.15925V39.117C18.5676 38.6611 17.1878 38.4291 15.7984 38.4309C9.51572 38.4309 4.42236 43.0443 4.42236 48.7351C4.42236 54.426 9.51572 59.0394 15.7986 59.0394C20.1163 59.0394 24.4349 56.6924 26.2298 52.691C27.7899 49.2134 27.1745 45.033 27.1745 41.3033V16.5555L51.9473 10.8017C51.8622 4.68106 46.1633 0.172408 40.1503 1.46833L40.1501 1.46816Z" fill="#FACD66"/>
<path d="M40.1413 29.995V63.139C40.1409 63.218 40.1221 63.2959 40.0864 63.3664C40.0506 63.437 39.999 63.4982 39.9355 63.5453C39.8721 63.5925 39.7985 63.6242 39.7207 63.6379C39.6428 63.6517 39.5628 63.6472 39.487 63.6247C38.3725 63.3062 37.2188 63.1452 36.0596 63.1463C29.7768 63.1463 24.6836 67.7597 24.6836 73.4506C24.6836 79.1414 29.7768 83.7548 36.0596 83.7548C40.3774 83.7548 44.6961 81.4078 46.4911 77.4064C48.051 73.9288 47.4357 69.7482 47.4357 66.0187V39.0612C47.436 38.8702 47.501 38.685 47.6201 38.5356C47.7392 38.3863 47.9053 38.2817 48.0915 38.2388L72.2085 32.6374C72.3328 32.6082 72.462 32.6074 72.5865 32.6351C72.7111 32.6628 72.8278 32.7182 72.9279 32.7973C73.0281 32.8763 73.1091 32.977 73.165 33.0917C73.2208 33.2064 73.25 33.3323 73.2505 33.4599V60.6051C73.2501 60.6842 73.2313 60.762 73.1956 60.8326C73.1599 60.9031 73.1082 60.9644 73.0448 61.0115C72.9813 61.0587 72.9077 61.0904 72.8299 61.1042C72.752 61.118 72.672 61.1135 72.5962 61.091C71.4816 60.7724 70.328 60.6113 69.1688 60.6124C62.8859 60.6124 57.7928 65.2258 57.7928 70.9167C57.7928 76.6077 62.8859 81.2209 69.1686 81.2209C72.9707 81.2209 76.7512 79.2526 78.8835 76.0324C80.9498 72.912 80.5459 69.6342 80.5447 66.1085C80.5428 59.8205 80.5428 53.5325 80.5447 47.2446V22.1066C80.5435 21.7272 80.4573 21.3529 80.2927 21.0111C80.1281 20.6693 79.889 20.3687 79.5931 20.1312C79.2973 19.8938 78.952 19.7256 78.5827 19.6389C78.2133 19.5521 77.8293 19.5492 77.4586 19.6301L42.423 27.1805C41.7782 27.318 41.2 27.6724 40.7848 28.1845C40.3696 28.6967 40.1425 29.3357 40.1413 29.995Z" fill="#A4C7C6"/>
<path d="M68.27 33.4599C68.2696 33.3323 68.2404 33.2064 68.1845 33.0917C68.1287 32.977 68.0477 32.8763 67.9475 32.7973C67.8474 32.7182 67.7306 32.6628 67.6061 32.6351C67.4815 32.6074 67.3523 32.6082 67.2281 32.6374L43.111 38.2388C42.9249 38.2817 42.7588 38.3863 42.6397 38.5356C42.5206 38.685 42.4556 38.8702 42.4553 39.0612V66.0187C42.4553 69.7482 43.0705 73.9288 41.5106 77.4065C40.0602 80.6399 36.9615 82.7921 33.5474 83.4995C34.3741 83.6689 35.2158 83.7544 36.0597 83.7548C40.3774 83.7548 44.6961 81.4078 46.4911 77.4064C48.051 73.9288 47.4357 69.7482 47.4357 66.0187V39.0612C47.4361 38.8702 47.5011 38.685 47.6202 38.5356C47.7392 38.3863 47.9054 38.2817 48.0915 38.2388L68.27 33.5522V33.4599ZM35.1557 63.1817C34.6227 63.2193 34.0926 63.2913 33.5688 63.397C33.8864 63.4617 34.1996 63.5368 34.5066 63.6247C34.5788 63.646 34.6547 63.6509 34.729 63.6391C34.8033 63.6274 34.8741 63.5993 34.9362 63.5569C34.9983 63.5145 35.0502 63.4588 35.0882 63.3939C35.1261 63.329 35.1492 63.2564 35.1557 63.1815V63.1817ZM80.5447 66.1085C80.5428 59.8205 80.5428 53.5325 80.5447 47.2446V22.1066C80.5435 21.7272 80.4574 21.3529 80.2927 21.0111C80.1281 20.6693 79.8891 20.3687 79.5932 20.1312C79.2973 19.8938 78.952 19.7256 78.5827 19.6389C78.2134 19.5521 77.8293 19.5492 77.4587 19.6301L74.7141 20.2216C74.9816 20.4574 75.1957 20.7474 75.3423 21.0725C75.4889 21.3975 75.5646 21.75 75.5643 22.1066V66.1085C75.5654 69.634 75.9693 72.912 73.9031 76.0324C72.1979 78.5517 69.5861 80.3157 66.6122 80.9564C67.4531 81.132 68.3098 81.2206 69.1688 81.2209C72.9706 81.2209 76.7513 79.2526 78.8836 76.0324C80.9498 72.912 80.5459 69.6342 80.5447 66.1085ZM68.2649 60.6478C67.7318 60.6855 67.2018 60.7575 66.6779 60.8632C66.9955 60.9278 67.3088 61.003 67.6158 61.091C67.6879 61.1122 67.7639 61.1171 67.8382 61.1054C67.9125 61.0937 67.9832 61.0656 68.0453 61.0232C68.1074 60.9808 68.1594 60.9251 68.1973 60.8602C68.2353 60.7952 68.2584 60.7227 68.2649 60.6478Z" fill="#9CBCBB"/>
</svg>
