<svg width="14" height="16" viewBox="0 0 14 16" fill="none" xmlns="http://www.w3.org/2000/svg">
<path d="M14 8.00972C14 8.51519 13.8409 9.0226 13.5227 9.42892C13.4631 9.50863 13.1847 9.83718 12.9659 10.051L12.8466 10.1677C11.1761 11.9388 7.01989 14.6022 4.91193 15.4557C4.91193 15.4751 3.65909 15.9825 3.0625 16H2.98295C2.06818 16 1.21307 15.4965 0.775568 14.68C0.536932 14.2309 0.318181 12.9283 0.298295 12.9108C0.119318 11.7424 0 9.95383 0 7.99028C0 5.93147 0.119318 4.06318 0.338068 2.91616C0.338068 2.89672 0.556818 1.8469 0.696023 1.49696C0.914773 0.993439 1.3125 0.563791 1.80966 0.291616C2.20739 0.0991499 2.625 0 3.0625 0C3.51989 0.0213852 4.375 0.311057 4.71307 0.447145C6.94034 1.30255 11.196 4.10207 12.8267 5.81288C13.1051 6.08505 13.4034 6.4175 13.483 6.49332C13.821 6.92102 14 7.44593 14 8.00972Z" fill="#FACD66"/>
</svg>
